<?xml version="1.0" encoding="UTF-8"?>
<svg width="2134px" height="2134px" viewBox="0 0 2134 2134" version="1.1" xmlns="http://www.w3.org/2000/svg" xmlns:xlink="http://www.w3.org/1999/xlink">
    <!-- Generator: Sketch 62 (91390) - https://sketch.com -->
    <title>Group</title>
    <desc>Created with Sketch.</desc>
    <defs>
        <linearGradient x1="62.0225682%" y1="68.9262662%" x2="0%" y2="52.9416054%" id="linearGradient-1">
            <stop stop-color="#FFFFFF" offset="0%"></stop>
            <stop stop-color="#DCDCDC" offset="100%"></stop>
        </linearGradient>
    </defs>
    <g id="Page-1" stroke="none" stroke-width="1" fill="none" fill-rule="evenodd">
        <g id="Group" transform="translate(-0.000000, 0.000000)">
            <g id="Chat-Bubble-Blue">
                <path d="M1066.99003,2134 C1338.4429,2134 1546.36669,1994.63947 1673.78683,1927.23752 C1693.17415,1916.98213 2043.02617,1994.63947 2070.25301,1960.83312 C2094.25051,1931.03649 1932.27692,1662.2841 1944.6679,1647.44761 C2070.25301,1497.07678 2134,1340.3231 2134,1067 C2134,477.712172 1656.27235,0 1066.99003,0 C477.707708,0 0,477.712172 0,1067 C0,1656.28783 477.707708,2134 1066.99003,2134 Z" id="Oval" fill="#1976D3" opacity="0.969005766"></path>
                <circle id="Oval" fill="#1973CD" cx="1067" cy="1067" r="1067"></circle>
            </g>
            <g id="UnChat-Logo-Light" transform="translate(287.000000, 540.000000)">
                <path d="M443.620438,1052 C509.341984,1052 566.73263,1044.13794 615.792376,1028.41383 C664.852122,1012.68972 707.895107,987.716134 744.92133,953.493069 C787.964315,913.257844 817.238172,866.547985 832.742903,813.363492 C848.247634,760.178998 856,693.814 856,614.268498 L856,526.167228 C856,484.082108 846.396323,452.749504 827.18897,432.169418 C807.981617,411.589331 782.873209,401.299288 751.863747,401.299288 C720.854285,401.299288 696.092998,411.589331 677.579886,432.169418 C659.066775,452.749504 649.810219,484.082108 649.810219,526.167228 L651.597576,503.439056 L649.810219,629.530135 C649.810219,716.475219 633.148418,781.337177 599.824818,824.116009 C566.501217,866.89484 509.573398,888.284256 429.041363,888.284256 C370.725061,888.284256 325.367937,877.762976 292.969992,856.720415 C260.572046,835.677855 238.009192,806.079528 225.281427,767.925435 C212.553663,729.771343 206.189781,682.252154 206.189781,625.36787 L206.189781,195.86794 C206.189781,154.245294 196.817518,123.028309 178.072993,102.216985 C159.328467,81.4056617 133.988646,71 102.053528,71 C71.5068938,71 46.8613139,81.4056617 28.1167883,102.216985 C9.37226277,123.028309 0,154.245294 0,195.86794 L0,614.268498 C0,691.039157 8.33090024,757.0573 24.9927007,812.322925 C41.6545012,867.588551 67.8042714,912.910989 103.442011,948.290238 C139.079751,983.669488 185.131117,1009.79926 241.596107,1026.67956 C298.061098,1043.55985 365.402541,1052 443.620438,1052 Z" id="U" fill="#FFFFFF" fill-rule="nonzero"></path>
                <path d="M1141.62663,1052 C1212.4101,1052 1274.40347,1040.66579 1327.60673,1017.99736 C1380.81,995.328936 1424.5292,965.836851 1458.76435,929.521108 C1492.99949,893.205365 1518.09755,856.19569 1534.05853,818.492084 C1550.01951,780.788478 1558,745.744943 1558,713.361478 C1558,687.917326 1549.2099,666.636763 1531.62969,649.519789 C1514.04948,632.402814 1492.99949,623.844327 1468.47972,623.844327 C1439.79623,623.844327 1418.97756,632.287159 1406.02372,649.172823 C1393.06988,666.058487 1382.19791,687.917326 1373.4078,714.74934 C1352.58914,771.651715 1321.70811,814.791117 1280.76473,844.167546 C1239.82135,873.543975 1189.74088,888.23219 1130.52334,888.23219 C1075.93216,888.23219 1028.28054,875.278804 987.568477,849.372032 C946.856414,823.465259 915.397093,784.258135 893.190513,731.75066 C870.983933,679.243184 859.880643,613.435356 859.880643,534.327177 C859.880643,415.896218 884.978704,324.528584 935.174828,260.224274 C985.370951,195.919965 1052.80031,163.76781 1137.46289,163.76781 C1190.66616,163.76781 1235.42629,176.258575 1271.74331,201.240106 C1308.06032,226.221636 1339.6353,263.925242 1366.46825,314.350923 C1382.66055,344.883905 1397.34927,366.395778 1410.53443,378.886544 C1423.71959,391.377309 1443.49732,397.622691 1469.86764,397.622691 C1493.46213,397.622691 1513.58684,388.601583 1530.24178,370.559367 C1546.89671,352.51715 1555.22418,331.699208 1555.22418,308.105541 C1555.22418,265.081794 1538.10661,219.397977 1503.87146,171.05409 C1469.63632,122.710202 1420.36547,82.1152155 1356.05891,49.2691293 C1291.75236,16.4230431 1218.42438,0 1136.07498,0 C1068.52997,0 1004.91737,12.0281442 945.237184,36.0844327 C885.557001,60.1407212 833.510329,95.1842568 789.097169,141.21504 C744.684009,187.245822 710.564524,242.644679 686.738715,307.411609 C662.912905,372.17854 651,445.503958 651,527.387863 C651,577.813544 655.74203,625.4635 665.22609,670.337731 C674.71015,715.211961 688.936241,757.426121 707.904361,796.980211 C726.872482,836.534301 749.773017,872.271768 776.605968,904.192612 C806.677378,939.351803 839.64027,967.687335 875.494644,989.199208 C911.349018,1010.71108 951.251466,1026.55585 995.201989,1036.73351 C1039.15251,1046.91117 1087.96072,1052 1141.62663,1052 Z" id="C" fill="#FFFFFF" fill-rule="nonzero"></path>
                <path d="M916.953631,777.173726 C958.183653,852.763549 1053.21838,883.316216 1141.68121,889.669849 C1188.99949,893.068372 1271.9892,865.286851 1321.14644,808.326304 C1363.89002,758.797515 1373.58012,682.104176 1406.08629,648.909788 C1442.43149,611.795093 1495.64498,610.283796 1536.93963,648.909788 C1544.70204,656.170555 1551.74455,670.828192 1558.06716,692.8827 C1559.31095,715.623425 1559.31095,731.88641 1558.06716,741.671655 C1555.48073,762.019837 1547.67577,779.55397 1543.74212,792.980973 C1538.99855,809.172551 1518.1227,863.3758 1484.60794,904.072006 C1446.36265,950.512397 1393.04154,984.087828 1352.58577,1005.96135 C1301.98071,1033.32236 1230.01586,1049.00191 1136.69123,1053 C1041.29023,1047.77583 967.612539,1034.25072 915.658147,1012.42465 C863.703756,990.59859 818.817706,956.792642 781,911.00681 C806.325163,858.175691 825.222263,808.204968 837.691298,761.094639 C850.160333,713.984311 857.572142,638.286098 859.926726,534 C863.234018,642.935249 882.242987,723.993158 916.953631,777.173726 Z" id="Path" fill="url(#linearGradient-1)"></path>
            </g>
        </g>
    </g>
</svg>